<svg xmlns="http://www.w3.org/2000/svg" fill="none" viewBox="0 0 30 30">
  <path d="M1.333 0A1.333 1.333 0 000 1.333V28a1.333 1.333 0 001.333 1.333h4V0h-4z" fill="#C4B5FD"/>
  <path fill-rule="evenodd" clip-rule="evenodd" d="M8 0h13.333v29.333H8V0zm5.333 22.667a1.333 1.333 0 102.667 0 1.333 1.333 0 00-2.667 0zM15.61 5.724a1.334 1.334 0 11-1.887 1.886 1.334 1.334 0 011.886-1.886zm.39 8.943a1.333 1.333 0 10-2.667 0 1.333 1.333 0 002.667 0z" fill="#7C3AED"/>
  <path d="M24 0v29.333h4A1.333 1.333 0 0029.333 28V1.333A1.333 1.333 0 0028 0h-4z" fill="#1DB5BE"/>
</svg>
